<mxfile host="app.diagrams.net" modified="2023-10-04T13:34:18.774Z" agent="Mozilla/5.0 (Windows NT 10.0; Win64; x64) AppleWebKit/537.36 (KHTML, like Gecko) Chrome/117.0.0.0 Safari/537.36 Edg/117.0.2045.47" etag="FNci_u2QDpVN50kbb-Qy" version="22.0.2" type="github">
  <diagram name="Strona-1" id="IyLmZtyO5ltR8Rs7Wp9b">
    <mxGraphModel dx="1386" dy="793" grid="1" gridSize="10" guides="1" tooltips="1" connect="1" arrows="1" fold="1" page="1" pageScale="1" pageWidth="827" pageHeight="1169" math="0" shadow="0">
      <root>
        <mxCell id="0" />
        <mxCell id="1" parent="0" />
        <mxCell id="7wWaO8H53ihinnj8b2KI-3" style="edgeStyle=orthogonalEdgeStyle;rounded=0;orthogonalLoop=1;jettySize=auto;html=1;exitX=0.5;exitY=1;exitDx=0;exitDy=0;entryX=0.5;entryY=0;entryDx=0;entryDy=0;" edge="1" parent="1" source="7wWaO8H53ihinnj8b2KI-1" target="7wWaO8H53ihinnj8b2KI-2">
          <mxGeometry relative="1" as="geometry" />
        </mxCell>
        <mxCell id="7wWaO8H53ihinnj8b2KI-1" value="Kreator postaci D&amp;amp;D" style="rounded=0;whiteSpace=wrap;html=1;" vertex="1" parent="1">
          <mxGeometry x="354" y="20" width="120" height="60" as="geometry" />
        </mxCell>
        <mxCell id="7wWaO8H53ihinnj8b2KI-7" style="edgeStyle=orthogonalEdgeStyle;rounded=0;orthogonalLoop=1;jettySize=auto;html=1;exitX=0;exitY=0.5;exitDx=0;exitDy=0;" edge="1" parent="1" source="7wWaO8H53ihinnj8b2KI-2" target="7wWaO8H53ihinnj8b2KI-5">
          <mxGeometry relative="1" as="geometry" />
        </mxCell>
        <mxCell id="7wWaO8H53ihinnj8b2KI-16" style="edgeStyle=orthogonalEdgeStyle;rounded=0;orthogonalLoop=1;jettySize=auto;html=1;entryX=0;entryY=0.5;entryDx=0;entryDy=0;" edge="1" parent="1" source="7wWaO8H53ihinnj8b2KI-2" target="7wWaO8H53ihinnj8b2KI-4">
          <mxGeometry relative="1" as="geometry" />
        </mxCell>
        <mxCell id="7wWaO8H53ihinnj8b2KI-2" value="Jaką płcią chcesz zagrać?" style="rounded=1;whiteSpace=wrap;html=1;" vertex="1" parent="1">
          <mxGeometry x="357" y="140" width="114" height="60" as="geometry" />
        </mxCell>
        <mxCell id="7wWaO8H53ihinnj8b2KI-14" style="edgeStyle=orthogonalEdgeStyle;rounded=0;orthogonalLoop=1;jettySize=auto;html=1;exitX=0.5;exitY=1;exitDx=0;exitDy=0;entryX=0.5;entryY=0;entryDx=0;entryDy=0;" edge="1" parent="1" source="7wWaO8H53ihinnj8b2KI-4" target="7wWaO8H53ihinnj8b2KI-13">
          <mxGeometry relative="1" as="geometry" />
        </mxCell>
        <mxCell id="7wWaO8H53ihinnj8b2KI-4" value="Kobieta" style="rounded=0;whiteSpace=wrap;html=1;" vertex="1" parent="1">
          <mxGeometry x="650" y="160" width="120" height="60" as="geometry" />
        </mxCell>
        <mxCell id="7wWaO8H53ihinnj8b2KI-10" style="edgeStyle=orthogonalEdgeStyle;rounded=0;orthogonalLoop=1;jettySize=auto;html=1;" edge="1" parent="1" source="7wWaO8H53ihinnj8b2KI-5">
          <mxGeometry relative="1" as="geometry">
            <mxPoint x="180" y="260" as="targetPoint" />
          </mxGeometry>
        </mxCell>
        <mxCell id="7wWaO8H53ihinnj8b2KI-5" value="Mężczyzna" style="rounded=0;whiteSpace=wrap;html=1;" vertex="1" parent="1">
          <mxGeometry x="120" y="160" width="120" height="60" as="geometry" />
        </mxCell>
        <mxCell id="7wWaO8H53ihinnj8b2KI-11" value="1" style="ellipse;whiteSpace=wrap;html=1;aspect=fixed;" vertex="1" parent="1">
          <mxGeometry x="155" y="260" width="50" height="50" as="geometry" />
        </mxCell>
        <mxCell id="7wWaO8H53ihinnj8b2KI-13" value="2" style="ellipse;whiteSpace=wrap;html=1;aspect=fixed;" vertex="1" parent="1">
          <mxGeometry x="685" y="260" width="50" height="50" as="geometry" />
        </mxCell>
        <mxCell id="7wWaO8H53ihinnj8b2KI-19" style="edgeStyle=orthogonalEdgeStyle;rounded=0;orthogonalLoop=1;jettySize=auto;html=1;exitX=0.5;exitY=1;exitDx=0;exitDy=0;entryX=0.5;entryY=0;entryDx=0;entryDy=0;" edge="1" parent="1" source="7wWaO8H53ihinnj8b2KI-17" target="7wWaO8H53ihinnj8b2KI-18">
          <mxGeometry relative="1" as="geometry" />
        </mxCell>
        <mxCell id="7wWaO8H53ihinnj8b2KI-17" value="1" style="ellipse;whiteSpace=wrap;html=1;aspect=fixed;" vertex="1" parent="1">
          <mxGeometry x="155" y="440" width="50" height="50" as="geometry" />
        </mxCell>
        <mxCell id="7wWaO8H53ihinnj8b2KI-25" style="edgeStyle=orthogonalEdgeStyle;rounded=0;orthogonalLoop=1;jettySize=auto;html=1;" edge="1" parent="1" source="7wWaO8H53ihinnj8b2KI-18" target="7wWaO8H53ihinnj8b2KI-20">
          <mxGeometry relative="1" as="geometry" />
        </mxCell>
        <mxCell id="7wWaO8H53ihinnj8b2KI-26" style="edgeStyle=orthogonalEdgeStyle;rounded=0;orthogonalLoop=1;jettySize=auto;html=1;" edge="1" parent="1" source="7wWaO8H53ihinnj8b2KI-18" target="7wWaO8H53ihinnj8b2KI-21">
          <mxGeometry relative="1" as="geometry" />
        </mxCell>
        <mxCell id="7wWaO8H53ihinnj8b2KI-27" style="edgeStyle=orthogonalEdgeStyle;rounded=0;orthogonalLoop=1;jettySize=auto;html=1;entryX=0.5;entryY=0;entryDx=0;entryDy=0;" edge="1" parent="1" source="7wWaO8H53ihinnj8b2KI-18" target="7wWaO8H53ihinnj8b2KI-23">
          <mxGeometry relative="1" as="geometry" />
        </mxCell>
        <mxCell id="7wWaO8H53ihinnj8b2KI-28" style="edgeStyle=orthogonalEdgeStyle;rounded=0;orthogonalLoop=1;jettySize=auto;html=1;entryX=0.5;entryY=0;entryDx=0;entryDy=0;" edge="1" parent="1" source="7wWaO8H53ihinnj8b2KI-18" target="7wWaO8H53ihinnj8b2KI-22">
          <mxGeometry relative="1" as="geometry" />
        </mxCell>
        <mxCell id="7wWaO8H53ihinnj8b2KI-29" style="edgeStyle=orthogonalEdgeStyle;rounded=0;orthogonalLoop=1;jettySize=auto;html=1;exitX=1;exitY=0.5;exitDx=0;exitDy=0;entryX=0.5;entryY=0;entryDx=0;entryDy=0;" edge="1" parent="1" source="7wWaO8H53ihinnj8b2KI-18" target="7wWaO8H53ihinnj8b2KI-24">
          <mxGeometry relative="1" as="geometry" />
        </mxCell>
        <mxCell id="7wWaO8H53ihinnj8b2KI-18" value="Wybierz klasę postaci" style="rounded=1;whiteSpace=wrap;html=1;" vertex="1" parent="1">
          <mxGeometry x="120" y="510" width="120" height="60" as="geometry" />
        </mxCell>
        <mxCell id="7wWaO8H53ihinnj8b2KI-20" value="Barbażyńca" style="rounded=0;whiteSpace=wrap;html=1;" vertex="1" parent="1">
          <mxGeometry x="20" y="610" width="100" height="60" as="geometry" />
        </mxCell>
        <mxCell id="7wWaO8H53ihinnj8b2KI-21" value="Wojownik" style="rounded=0;whiteSpace=wrap;html=1;" vertex="1" parent="1">
          <mxGeometry x="150" y="610" width="100" height="60" as="geometry" />
        </mxCell>
        <mxCell id="7wWaO8H53ihinnj8b2KI-22" value="Paladyn" style="rounded=0;whiteSpace=wrap;html=1;" vertex="1" parent="1">
          <mxGeometry x="280" y="610" width="100" height="60" as="geometry" />
        </mxCell>
        <mxCell id="7wWaO8H53ihinnj8b2KI-23" value="Łowca" style="rounded=0;whiteSpace=wrap;html=1;" vertex="1" parent="1">
          <mxGeometry x="413.5" y="610" width="100" height="60" as="geometry" />
        </mxCell>
        <mxCell id="7wWaO8H53ihinnj8b2KI-24" value="Wiedźmin" style="rounded=0;whiteSpace=wrap;html=1;" vertex="1" parent="1">
          <mxGeometry x="550" y="610" width="100" height="60" as="geometry" />
        </mxCell>
      </root>
    </mxGraphModel>
  </diagram>
</mxfile>
